# xmcd
#
# Track frame offsets:
#	183
#	14083
#	26918
#	36650
#	50355
#	65598
#	77415
#	90208
#	104605
#	118635
#	129053
#	138403
#
# Disc length: 2108 seconds
#
# Revision: 0
# Processed by: cddbd v1.5.2PL0 Copyright (c) Steve Scherf et al.
# Submitted via: EZCDAudioConverter 2.2.2.1
#
DISCID=9e083a0c
DTITLE=Sylva Schneiderova - Hledej svuj strom
DYEAR=1993
DGENRE=Country
TTITLE0=Laska
TTITLE1=Oh, mama
TTITLE2=Rozhodne nejsi sam
TTITLE3=Hledej svuj strom
TTITLE4=Tapu dal
TTITLE5=Tam se ani nedivej
TTITLE6=Napul laska, napul hrich
TTITLE7=Znas me, mas me
TTITLE8=Lide nekdy placou
TTITLE9=Vis, ze te znam
TTITLE10=Ja si nechci s ohnem hrat
TTITLE11=Pratele
EXTD=
EXTT0=
EXTT1=
EXTT2=
EXTT3=
EXTT4=
EXTT5=
EXTT6=
EXTT7=
EXTT8=
EXTT9=
EXTT10=
EXTT11=
PLAYORDER=
